<?xml version="1.0" standalone="no"?>
<!DOCTYPE svg PUBLIC "-//W3C//DTD SVG 20010904//EN"
 "http://www.w3.org/TR/2001/REC-SVG-20010904/DTD/svg10.dtd">
<svg version="1.0" xmlns="http://www.w3.org/2000/svg"
 width="1200.000000pt" height="1200.000000pt" viewBox="0 0 1200.000000 1200.000000"
 preserveAspectRatio="xMidYMid meet">
<metadata>
Created by potrace 1.11, written by Peter Selinger 2001-2013
</metadata>
<g transform="translate(0.000000,1200.000000) scale(0.100000,-0.100000)"
fill="#000000" stroke="none">
<path d="M5682 10223 c-6 -2 -10 -9 -6 -14 3 -5 -7 -4 -21 1 -34 13 -38 13
-29 -2 5 -8 1 -8 -10 1 -15 13 -19 13 -27 0 -7 -12 -9 -12 -9 1 0 13 -1 13
-10 0 -9 -13 -10 -13 -10 0 0 9 -3 11 -8 5 -7 -10 -23 -14 -77 -18 -16 -1 -36
-6 -42 -10 -9 -6 -11 -3 -6 10 6 15 4 16 -9 6 -8 -7 -18 -10 -21 -6 -4 3 -7 2
-7 -3 0 -5 -11 -10 -25 -10 -14 -1 -23 1 -21 5 2 3 -6 6 -19 6 -15 0 -20 -4
-15 -10 6 -7 -12 -10 -50 -10 -33 0 -56 -4 -52 -9 3 -5 -2 -7 -11 -3 -10 4
-17 1 -17 -6 0 -7 -3 -8 -8 -2 -10 14 -35 18 -26 4 4 -8 0 -9 -15 -4 -13 4
-21 2 -21 -6 0 -8 -5 -8 -17 2 -14 12 -16 12 -8 0 6 -11 4 -13 -8 -8 -9 3 -19
2 -22 -3 -4 -6 -11 -10 -16 -10 -6 0 -7 6 -3 13 6 8 3 8 -9 -2 -9 -7 -24 -11
-32 -7 -9 3 -14 2 -11 -3 3 -5 -1 -12 -10 -15 -9 -4 -13 -2 -8 5 4 8 1 8 -14
0 -27 -14 -45 -14 -36 1 4 7 3 8 -4 4 -7 -4 -12 -15 -12 -24 0 -10 -3 -13 -8
-7 -9 13 -35 19 -28 6 3 -4 -6 -9 -19 -10 -48 -3 -55 -4 -55 -13 0 -5 -11 -6
-25 -4 -13 3 -28 0 -31 -6 -5 -7 -2 -8 6 -3 8 5 11 4 7 -1 -3 -5 -23 -9 -45
-9 -22 0 -38 -3 -36 -7 2 -3 0 -9 -6 -13 -5 -3 -10 0 -10 7 -1 9 -5 8 -13 -4
-10 -12 -17 -14 -31 -6 -14 8 -17 7 -12 -1 4 -6 2 -12 -3 -12 -26 -3 -30 -4
-37 -11 -4 -4 -13 -3 -21 4 -11 8 -12 7 -7 -6 7 -18 -15 -19 -28 -1 -5 6 -8 3
-8 -7 0 -12 -6 -16 -20 -13 -11 2 -18 0 -15 -6 4 -5 -2 -9 -11 -9 -10 0 -27
-8 -38 -17 -20 -17 -20 -17 -7 0 12 15 12 17 -3 11 -9 -3 -16 -11 -16 -16 0
-6 -8 -4 -17 3 -9 8 -14 9 -10 2 8 -12 -47 -36 -59 -25 -4 4 -4 2 -1 -4 4 -7
-5 -14 -24 -18 -16 -3 -37 -13 -46 -22 -13 -12 -17 -13 -24 -2 -7 10 -9 10 -9
1 0 -7 -7 -13 -16 -13 -8 0 -13 -4 -9 -9 3 -6 -4 -8 -15 -6 -11 2 -20 -1 -20
-7 0 -5 -7 -7 -16 -4 -11 4 -15 2 -11 -8 5 -12 1 -13 -18 -6 -14 5 -24 6 -24
2 4 -28 -1 -34 -18 -21 -14 12 -16 12 -8 0 6 -11 4 -13 -8 -8 -11 4 -17 1 -17
-8 0 -14 -11 -18 -52 -18 -10 0 -15 -4 -12 -8 3 -5 0 -9 -6 -9 -6 0 -8 -5 -4
-12 4 -6 3 -8 -4 -4 -6 3 -14 1 -17 -5 -4 -5 -13 -8 -21 -5 -8 3 -14 1 -14 -5
0 -6 -7 -8 -16 -5 -8 3 -12 2 -9 -3 3 -5 -4 -12 -15 -16 -12 -4 -17 -11 -13
-18 4 -8 1 -8 -9 1 -13 10 -17 10 -22 -3 -3 -8 -15 -15 -27 -15 -14 0 -19 -5
-16 -14 4 -11 -1 -13 -20 -10 -20 4 -24 1 -20 -10 4 -10 1 -13 -8 -9 -8 3 -18
-2 -21 -11 -3 -9 -10 -16 -16 -16 -5 0 -6 6 -2 13 4 6 -3 2 -15 -11 -12 -12
-28 -19 -34 -16 -7 4 -9 4 -5 -1 10 -11 -22 -34 -46 -35 -11 0 -16 -3 -13 -7
9 -9 -24 -32 -46 -33 -11 0 -15 -4 -11 -12 5 -7 0 -9 -14 -6 -15 4 -19 2 -15
-8 3 -9 -2 -14 -17 -14 -11 0 -19 -4 -16 -9 5 -8 -29 -24 -46 -22 -4 0 -5 -6
-2 -14 4 -11 0 -15 -16 -15 -14 0 -24 -8 -27 -21 -4 -16 -8 -17 -14 -7 -7 10
-9 9 -9 -5 0 -9 -3 -16 -7 -16 -20 3 -34 -2 -29 -10 7 -11 -22 -23 -35 -16 -5
4 -6 -2 -2 -11 4 -12 3 -15 -5 -10 -7 4 -12 2 -12 -4 0 -6 -11 -15 -25 -20
-14 -5 -25 -14 -25 -20 0 -5 -7 -10 -16 -10 -8 0 -12 -4 -9 -10 3 -5 -6 -12
-21 -16 -19 -5 -22 -9 -12 -15 10 -7 9 -9 -4 -9 -10 0 -18 -5 -18 -12 0 -6 -3
-9 -6 -5 -9 9 -54 -35 -54 -52 0 -14 -1 -14 -10 -1 -9 14 -15 7 -11 -14 1 -5
-5 -6 -13 -3 -11 4 -13 1 -9 -10 4 -11 2 -14 -5 -9 -7 4 -12 2 -12 -3 0 -6 -8
-11 -17 -12 -11 0 -13 -3 -5 -6 6 -2 10 -9 7 -13 -3 -5 -13 -6 -22 -3 -11 4
-14 3 -9 -5 6 -11 -5 -16 -25 -14 -4 1 -4 -9 -1 -21 5 -20 4 -21 -11 -8 -15
12 -17 12 -11 -2 3 -10 -2 -20 -16 -27 -11 -6 -17 -16 -14 -22 4 -7 3 -8 -4
-4 -7 4 -12 3 -12 -3 0 -5 -10 -13 -21 -16 -17 -6 -19 -9 -8 -16 12 -7 11 -9
-1 -10 -8 -1 -18 -1 -22 0 -5 0 -8 -4 -8 -10 0 -5 -6 -7 -12 -3 -8 5 -7 0 2
-11 9 -11 10 -16 2 -11 -7 4 -15 1 -18 -8 -3 -9 -11 -13 -17 -9 -6 4 -8 0 -4
-10 4 -11 1 -17 -8 -17 -8 0 -15 -7 -15 -15 0 -9 -6 -12 -15 -9 -11 5 -13 2
-9 -10 4 -11 1 -16 -11 -16 -9 0 -14 -3 -12 -7 6 -11 -30 -43 -39 -35 -4 4 -4
2 0 -5 8 -14 -33 -45 -47 -36 -6 3 -7 1 -3 -6 4 -6 12 -9 17 -6 5 3 6 -1 3 -9
-3 -8 -14 -18 -25 -21 -10 -4 -18 -11 -16 -17 1 -6 -9 -17 -23 -25 -14 -7 -19
-13 -11 -13 9 0 5 -8 -11 -23 -13 -12 -27 -31 -31 -41 -4 -11 -13 -16 -22 -12
-13 4 -13 2 -5 -14 9 -16 7 -18 -11 -15 -17 4 -19 2 -9 -10 10 -11 10 -15 1
-15 -7 0 -10 -4 -6 -9 3 -6 -3 -8 -13 -6 -15 2 -18 -2 -16 -20 1 -18 -2 -22
-14 -18 -10 4 -13 2 -8 -5 4 -7 2 -12 -4 -12 -6 0 -8 -4 -5 -10 3 -5 1 -10 -4
-10 -6 0 -11 -7 -11 -16 0 -9 -9 -18 -20 -21 -17 -5 -18 -8 -8 -21 8 -9 8 -13
2 -9 -7 4 -18 -1 -25 -10 -12 -14 -12 -16 0 -8 10 5 12 4 7 -3 -4 -7 -15 -12
-24 -12 -15 0 -15 -2 -2 -10 13 -9 7 -14 -12 -11 -5 0 -7 -2 -6 -7 2 -13 -20
-60 -34 -69 -7 -4 -13 -15 -13 -23 0 -8 -8 -14 -17 -14 -14 1 -16 -2 -7 -17 7
-15 6 -19 -5 -19 -9 0 -13 -7 -11 -19 3 -15 -1 -18 -12 -14 -13 5 -15 2 -10
-16 4 -17 2 -21 -8 -17 -10 3 -12 0 -8 -11 5 -12 3 -14 -7 -8 -8 5 -11 4 -6
-3 3 -6 2 -13 -4 -17 -5 -3 -10 -15 -10 -26 0 -12 -4 -17 -11 -13 -7 4 -10 1
-7 -7 2 -7 -5 -22 -16 -32 -12 -10 -15 -16 -9 -12 19 9 16 -2 -7 -25 -12 -12
-17 -26 -13 -37 5 -12 2 -15 -10 -10 -11 4 -15 1 -12 -13 2 -11 -2 -26 -10
-34 -8 -7 -11 -16 -8 -20 4 -3 1 -6 -5 -6 -6 0 -9 -9 -7 -20 2 -11 1 -19 -3
-16 -4 2 -12 -2 -19 -9 -10 -11 -10 -15 0 -18 7 -3 5 -6 -5 -6 -11 -1 -15 -7
-11 -21 4 -15 0 -20 -13 -20 -15 0 -16 -2 -5 -9 9 -6 10 -11 2 -15 -6 -4 -9
-11 -6 -16 3 -4 -2 -11 -11 -14 -9 -4 -14 -13 -10 -21 3 -8 1 -15 -4 -15 -5 0
-7 -6 -4 -14 3 -7 -2 -21 -11 -30 -9 -9 -13 -21 -9 -27 5 -8 3 -9 -6 -4 -8 5
-11 3 -8 -6 3 -8 -2 -20 -11 -27 -9 -8 -10 -11 -3 -7 6 3 12 1 12 -5 0 -6 -7
-13 -15 -16 -11 -5 -12 -11 -4 -25 7 -15 7 -19 -3 -17 -7 2 -12 -3 -11 -9 2
-7 -2 -13 -8 -13 -5 0 -7 -4 -4 -10 3 -5 3 -16 -2 -22 -4 -7 -9 -22 -10 -32
-2 -10 -11 -25 -21 -33 -9 -8 -11 -12 -4 -8 6 3 12 1 12 -4 0 -6 -5 -11 -11
-11 -8 0 -8 -4 0 -14 10 -11 8 -17 -6 -25 -10 -6 -14 -11 -9 -11 4 0 1 -12 -9
-26 -9 -14 -14 -28 -11 -32 3 -3 6 1 6 8 0 7 3 11 6 8 6 -7 -16 -49 -31 -60
-6 -5 -5 -8 2 -8 7 0 10 -7 7 -15 -4 -8 -11 -12 -18 -8 -6 4 -5 -1 3 -10 7 -9
9 -17 3 -17 -5 0 -13 -7 -16 -16 -4 -10 -2 -13 7 -8 9 6 9 5 0 -8 -7 -8 -10
-18 -6 -21 3 -4 1 -7 -7 -7 -10 0 -10 -4 1 -17 8 -9 9 -14 3 -10 -7 4 -14 -2
-17 -13 -3 -11 0 -20 6 -20 8 0 7 -4 -2 -9 -7 -5 -10 -14 -7 -20 4 -6 2 -11
-4 -11 -6 0 -8 -4 -5 -10 3 -5 1 -10 -6 -10 -8 0 -8 -4 1 -15 10 -12 10 -15 0
-15 -7 0 -10 -7 -7 -15 4 -8 2 -17 -4 -20 -5 -4 -7 -11 -4 -16 4 -5 0 -9 -7
-9 -10 0 -10 -2 1 -9 9 -6 10 -11 3 -15 -6 -4 -8 -14 -5 -23 4 -10 2 -14 -4
-10 -6 4 -8 -3 -5 -20 4 -19 2 -24 -8 -18 -9 6 -10 3 -1 -14 7 -12 8 -21 2
-21 -9 0 -11 -9 -11 -73 0 -17 -4 -26 -10 -22 -13 8 -9 -17 5 -27 6 -5 5 -8
-2 -8 -7 0 -13 -5 -13 -11 0 -5 5 -7 10 -4 5 3 10 2 10 -4 0 -5 -4 -11 -9 -13
-6 -1 -11 -23 -12 -48 -2 -25 -7 -48 -13 -52 -7 -5 -5 -8 4 -8 13 0 13 -1 0
-10 -13 -9 -13 -11 0 -20 12 -8 12 -10 1 -10 -11 0 -11 -3 0 -17 12 -14 12
-16 -1 -11 -12 4 -14 -3 -11 -40 2 -30 0 -42 -8 -38 -7 5 -9 1 -5 -8 3 -9 11
-13 18 -9 6 4 5 -1 -3 -10 -7 -9 -10 -17 -6 -17 4 0 1 -8 -6 -17 -10 -11 -10
-14 -1 -9 15 9 16 -6 0 -22 -7 -7 -8 -12 -3 -12 6 0 10 -15 10 -34 0 -28 -2
-32 -14 -23 -12 10 -12 9 -2 -11 7 -13 10 -30 7 -38 -3 -8 0 -14 7 -14 7 0 8
-3 2 -8 -14 -10 -15 -52 -2 -52 6 0 3 -6 -8 -13 -14 -11 -15 -16 -5 -22 9 -6
11 -4 5 5 -6 9 -4 11 4 5 9 -5 9 -11 3 -17 -7 -7 -7 -19 -2 -34 5 -13 6 -26 1
-28 -9 -6 -6 -54 3 -63 3 -3 1 -13 -4 -22 -5 -10 -5 -23 0 -31 5 -9 5 -19 -2
-27 -8 -9 -7 -13 2 -13 8 0 10 -3 7 -6 -3 -4 -1 -16 5 -28 9 -18 9 -19 -3 -9
-11 9 -14 7 -14 -12 0 -13 4 -21 9 -17 5 3 7 -2 3 -11 -4 -10 -1 -17 6 -17 7
0 3 -7 -7 -15 -12 -9 -15 -15 -7 -15 9 0 12 -9 8 -26 -3 -17 0 -28 10 -31 11
-5 12 -7 2 -14 -10 -6 -10 -11 0 -22 9 -12 9 -16 -1 -20 -10 -4 -10 -6 1 -6
10 -1 11 -4 2 -15 -9 -10 -8 -16 3 -25 8 -7 12 -19 9 -27 -3 -7 0 -27 6 -44 5
-17 6 -28 1 -25 -5 3 -8 -4 -7 -15 1 -11 4 -20 8 -20 4 0 7 -19 7 -42 1 -22 7
-45 14 -49 10 -7 10 -9 0 -9 -10 0 -10 -4 0 -20 11 -17 10 -22 -2 -30 -12 -8
-12 -10 5 -10 15 0 17 -2 6 -9 -10 -6 -10 -10 -1 -13 7 -2 14 -26 16 -53 1
-27 8 -51 14 -53 8 -3 7 -8 -1 -18 -8 -10 -8 -14 0 -14 6 0 11 -5 11 -11 0 -5
-5 -7 -11 -3 -7 4 -1 -8 12 -26 17 -23 20 -34 12 -37 -9 -3 -8 -11 3 -29 9
-13 13 -24 10 -24 -4 0 -2 -10 5 -21 6 -12 7 -19 2 -16 -5 4 -10 0 -10 -8 0
-8 4 -12 9 -9 7 5 12 -10 9 -28 0 -5 4 -8 9 -8 7 0 7 -7 -1 -21 -9 -17 -8 -20
2 -14 9 6 11 3 6 -9 -4 -9 -3 -14 2 -11 5 3 12 1 16 -5 3 -5 0 -10 -7 -10 -9
-1 -8 -4 3 -10 11 -6 15 -18 11 -35 -2 -15 0 -25 7 -25 6 0 11 -11 11 -24 0
-14 5 -28 11 -31 6 -4 8 -13 5 -20 -2 -7 1 -16 9 -19 14 -5 15 -22 1 -45 -5
-8 -5 -12 0 -9 5 3 15 0 22 -8 8 -9 9 -14 2 -14 -7 0 -4 -7 4 -16 14 -13 19
-26 18 -44 -1 -20 129 -180 147 -180 5 0 14 -6 20 -14 19 -22 117 -67 179 -81
73 -18 202 -12 272 11 30 10 57 18 60 19 10 2 95 48 100 54 3 3 21 14 40 24
19 9 55 31 80 47 25 16 59 36 75 45 38 19 107 61 120 72 6 4 26 16 45 26 19
10 71 40 115 67 44 27 98 59 120 71 22 12 42 24 45 28 3 3 21 14 40 24 19 10
71 40 115 67 44 27 98 59 120 71 22 12 42 24 45 28 3 3 22 15 42 26 85 46 193
109 198 115 3 4 21 15 40 25 19 10 37 21 40 24 3 3 22 15 42 26 88 48 194 110
205 120 6 7 25 18 42 25 l30 12 4 1107 c1 608 5 1115 9 1126 45 144 62 186 97
245 101 170 261 293 451 347 61 17 127 18 1151 18 775 0 1090 -3 1100 -11 8
-6 43 -17 79 -24 73 -14 136 -33 195 -61 22 -10 70 -31 106 -47 90 -40 228
-135 321 -221 66 -62 176 -193 206 -247 8 -14 13 -14 33 -4 13 7 26 16 29 19
3 3 22 15 42 26 85 46 193 109 198 115 3 4 21 15 40 25 19 10 37 21 40 24 3 3
22 15 42 26 85 46 193 109 198 115 3 4 21 15 40 25 19 10 37 21 40 24 3 3 22
15 42 26 81 44 193 109 198 115 3 4 41 26 85 50 44 24 82 46 85 50 3 4 39 26
80 49 102 58 222 128 240 141 8 6 43 27 78 48 35 20 179 106 320 191 141 85
284 170 317 190 34 20 70 42 80 48 11 7 36 22 55 33 45 26 54 32 387 231 155
93 286 169 292 169 5 0 11 4 13 8 2 5 45 33 96 63 51 30 104 61 117 69 47 29
191 115 225 133 19 11 42 25 51 33 8 8 20 14 25 14 5 0 20 9 34 20 14 11 -26
-2 -88 -29 -62 -27 -123 -52 -135 -56 -12 -4 -24 -8 -27 -9 -43 -18 -318 -100
-370 -111 -8 -2 -47 -10 -85 -19 -112 -24 -209 -41 -295 -51 -25 -3 -61 -7
-80 -10 -155 -21 -616 -28 -770 -12 -418 44 -678 103 -1016 233 -104 39 -304
134 -331 155 -7 7 -13 5 -16 -3 -3 -8 -6 -6 -6 5 -1 10 -5 16 -11 12 -5 -3
-18 3 -29 14 -13 13 -21 16 -25 8 -2 -7 -5 -5 -5 4 -1 9 -14 22 -31 29 -16 7
-30 16 -30 21 0 5 -9 9 -21 9 -15 0 -19 4 -15 16 5 14 4 15 -8 5 -11 -9 -15
-8 -20 4 -3 8 -12 15 -21 15 -8 0 -15 5 -15 11 0 5 -4 7 -10 4 -5 -3 -10 -1
-10 5 0 6 -4 8 -10 5 -5 -3 -10 -1 -10 5 0 7 -7 9 -15 6 -9 -3 -18 1 -21 9 -4
8 -14 15 -24 15 -10 0 -20 7 -24 15 -6 16 -45 35 -85 42 -13 2 -30 11 -38 19
-8 8 -19 12 -24 9 -5 -4 -9 -1 -9 4 0 6 -9 11 -20 11 -12 0 -20 7 -20 18 0 14
-2 15 -10 2 -7 -11 -10 -11 -10 -2 0 7 -4 10 -10 7 -5 -3 -10 -1 -10 4 0 6 -6
10 -12 9 -7 -2 -12 2 -11 7 1 6 -13 12 -30 13 -17 2 -36 7 -41 12 -6 6 -18 10
-29 10 -10 0 -15 5 -12 10 4 7 -3 9 -20 6 -17 -3 -28 0 -32 10 -3 8 -12 13
-20 9 -10 -3 -13 -1 -10 8 3 7 -3 13 -13 13 -10 0 -16 -5 -13 -11 4 -5 -3 -1
-15 9 -12 11 -25 16 -29 13 -3 -4 -12 1 -20 11 -8 9 -12 11 -8 5 4 -9 1 -11
-9 -7 -9 3 -13 11 -9 18 4 6 0 6 -9 -2 -9 -7 -18 -9 -20 -3 -1 5 -18 12 -37
14 -19 3 -37 9 -40 14 -6 8 -27 15 -48 16 -7 0 -13 4 -13 8 0 5 -7 6 -15 3 -8
-4 -15 -2 -15 3 0 5 -14 10 -32 11 -17 2 -37 7 -43 12 -7 5 -15 7 -18 3 -4 -3
-17 2 -29 13 -12 10 -18 13 -14 7 8 -14 -6 -18 -18 -5 -4 4 -12 8 -17 8 -22 3
-23 5 -9 14 10 7 11 10 2 10 -7 0 -15 -7 -19 -16 -4 -12 -8 -13 -13 -3 -5 6
-22 14 -39 15 -46 6 -55 8 -63 19 -5 6 -8 5 -8 -3 0 -10 -4 -9 -16 3 -14 13
-19 14 -25 3 -6 -9 -9 -9 -9 -1 0 6 -9 10 -20 8 -11 -2 -20 1 -20 7 0 6 -7 5
-17 -3 -14 -12 -16 -12 -8 0 6 11 3 13 -13 9 -12 -4 -22 -2 -22 3 0 4 -7 5
-17 2 -12 -5 -14 -3 -8 8 8 12 6 12 -8 0 -14 -11 -17 -11 -17 0 0 11 -2 11
-10 -1 -7 -12 -10 -12 -10 -1 0 7 -6 11 -14 8 -7 -3 -24 2 -37 11 -21 15 -22
14 -16 -3 6 -14 5 -16 -6 -7 -8 7 -17 9 -20 5 -4 -3 -7 -1 -7 7 0 10 -3 10
-14 1 -9 -7 -17 -8 -20 -2 -3 5 -15 7 -25 4 -10 -3 -22 0 -25 6 -4 5 -14 7
-22 4 -9 -3 -20 0 -25 8 -6 10 -9 10 -9 2 0 -7 -5 -13 -11 -13 -5 0 -8 4 -5 8
2 4 -4 8 -15 8 -10 0 -19 -4 -19 -9 0 -5 -6 -5 -13 2 -10 8 -17 7 -27 -2 -10
-10 -11 -9 -5 2 6 11 4 13 -8 8 -9 -3 -19 -2 -21 2 -3 5 -16 6 -30 4 -13 -3
-34 1 -47 8 -21 11 -23 10 -11 -3 10 -13 9 -15 -13 -10 -14 2 -22 9 -18 15 4
6 1 7 -8 2 -20 -13 -49 -13 -49 -1 0 6 -7 2 -15 -8 -15 -20 -15 -20 -15 0 0
16 -2 17 -10 4 -9 -13 -10 -13 -10 0 0 13 -1 13 -10 0 -9 -13 -10 -13 -10 0 0
13 -1 13 -10 0 -9 -13 -10 -13 -10 0 0 13 -1 13 -10 0 -5 -8 -10 -10 -10 -3 0
12 -17 12 -35 1 -6 -4 -17 -3 -25 2 -9 5 -19 5 -27 -2 -9 -7 -13 -7 -13 2 0
10 -3 10 -15 0 -12 -10 -15 -10 -15 0 0 8 -4 9 -12 3 -7 -5 -24 -8 -38 -6 -42
6 -44 6 -64 -3 -14 -5 -17 -4 -12 4 8 13 7 13 -12 5z m2213 -493 c3 -6 -1 -7
-9 -4 -18 7 -21 14 -7 14 6 0 13 -4 16 -10z"/>
<path d="M9405 7635 c-103 -30 -185 -59 -185 -67 0 -5 -4 -7 -9 -4 -5 3 -19
-2 -32 -13 -13 -10 -53 -35 -89 -55 -111 -64 -145 -84 -155 -93 -5 -4 -26 -16
-45 -26 -39 -19 -176 -100 -200 -117 -18 -13 -135 -82 -240 -141 -41 -23 -77
-45 -80 -49 -3 -4 -39 -25 -80 -49 -41 -23 -95 -54 -118 -69 l-44 -27 1 -180
c2 -230 -20 -338 -109 -530 -102 -220 -337 -452 -581 -575 -33 -17 -57 -35
-54 -40 4 -6 -1 -7 -11 -3 -13 5 -15 3 -9 -7 5 -9 4 -11 -4 -6 -15 10 -73 -13
-65 -25 3 -5 -3 -6 -12 -2 -13 5 -15 3 -9 -7 5 -9 4 -11 -3 -6 -14 9 -84 -3
-77 -14 2 -4 -7 -5 -22 -2 -16 3 -24 1 -20 -5 4 -6 -4 -8 -20 -5 -14 3 -23 1
-20 -4 3 -5 -9 -9 -26 -10 -18 0 -70 -6 -117 -12 -58 -7 -232 -9 -533 -5
l-447 6 0 -734 c0 -404 -2 -774 -4 -824 -14 -311 -202 -579 -482 -685 -119
-45 -177 -49 -736 -50 l-528 -1 -2 710 -3 710 -65 -39 c-36 -21 -99 -58 -140
-81 -41 -24 -79 -47 -85 -52 -10 -9 -104 -64 -235 -138 -41 -23 -77 -45 -80
-49 -3 -4 -40 -26 -83 -51 -43 -24 -95 -54 -115 -66 -20 -12 -55 -32 -77 -44
-22 -12 -42 -25 -45 -30 -3 -5 -21 -15 -40 -24 -19 -9 -55 -29 -80 -45 -25
-17 -58 -37 -75 -46 -34 -17 -102 -58 -125 -74 -8 -6 -29 -18 -47 -28 -96 -52
-118 -66 -131 -78 -7 -8 -18 -14 -24 -14 -5 0 -23 -9 -39 -21 -16 -11 -36 -18
-44 -15 -7 2 -24 -3 -37 -13 -13 -10 -65 -42 -117 -72 -52 -30 -115 -66 -140
-81 -25 -16 -75 -45 -109 -65 -35 -21 -83 -49 -106 -63 -23 -14 -98 -58 -166
-98 -69 -41 -177 -105 -240 -143 -63 -39 -124 -74 -135 -80 -11 -5 -32 -17
-47 -27 -51 -33 -207 -124 -256 -149 -17 -9 -32 -20 -32 -25 0 -4 -4 -8 -10
-8 -5 0 -66 -34 -135 -75 -69 -41 -129 -75 -135 -75 -5 0 -10 -4 -10 -10 0 -5
-11 -12 -25 -16 -14 -3 -25 -10 -25 -14 0 -4 -8 -10 -17 -13 -10 -4 -34 -16
-55 -29 -20 -13 -62 -39 -95 -58 -32 -19 -71 -42 -88 -52 -16 -10 -48 -27 -70
-39 -22 -12 -42 -24 -45 -28 -3 -3 -23 -16 -45 -29 -147 -83 -205 -118 -205
-124 0 -4 16 1 35 12 19 11 36 19 38 19 1 0 13 4 27 9 14 6 50 20 80 31 30 12
64 26 75 30 38 17 149 51 167 51 10 0 18 4 18 8 0 4 8 8 18 9 9 1 60 13 112
27 52 15 104 28 115 30 11 2 44 6 73 10 28 5 52 11 52 15 0 4 10 7 22 6 12 -1
40 2 63 6 177 33 318 43 615 43 242 1 302 -2 455 -21 28 -3 59 -7 70 -8 26 -2
113 -15 145 -22 14 -2 36 -6 50 -8 38 -6 212 -44 235 -52 11 -4 26 -8 33 -9
17 -3 112 -32 187 -57 33 -11 66 -20 73 -20 6 0 12 -4 12 -9 0 -4 3 -7 8 -6 8
1 17 -2 137 -50 50 -19 137 -59 195 -88 64 -32 107 -49 111 -43 4 7 17 0 33
-16 14 -14 26 -20 26 -13 0 7 7 2 16 -10 8 -12 24 -22 35 -22 10 0 19 -5 19
-11 0 -5 4 -8 9 -4 5 3 16 -3 23 -12 7 -10 20 -18 28 -18 8 0 15 -5 15 -12 0
-6 4 -15 9 -20 5 -4 6 -3 3 3 -4 7 0 14 8 17 9 4 12 1 8 -9 -3 -9 2 -14 16
-14 12 0 21 -5 21 -11 0 -5 4 -7 10 -4 5 3 10 -1 10 -10 0 -9 5 -13 10 -10 6
4 7 12 3 18 -6 12 36 -21 47 -35 3 -4 17 -9 30 -11 13 -2 26 -9 28 -15 2 -7 8
-10 13 -6 5 3 9 0 9 -5 0 -6 3 -10 8 -10 20 3 33 -2 27 -11 -4 -6 -3 -10 2 -9
22 4 43 -2 38 -11 -3 -6 1 -7 9 -4 9 3 16 1 16 -4 0 -6 9 -9 20 -7 11 2 23 -1
26 -7 5 -7 2 -8 -6 -3 -8 5 -11 4 -6 -3 4 -6 14 -8 23 -5 10 4 14 2 10 -4 -4
-7 0 -10 10 -8 10 1 26 -4 36 -13 13 -11 17 -12 17 -2 0 8 8 4 19 -8 20 -24
36 -29 26 -9 -4 6 2 1 13 -12 14 -17 21 -20 27 -11 6 9 9 9 16 -1 4 -8 21 -15
36 -16 15 -1 33 -10 40 -19 8 -11 13 -13 13 -5 0 7 6 11 13 8 6 -2 11 -9 10
-15 -1 -5 7 -8 19 -4 13 3 19 1 15 -5 -4 -6 4 -9 18 -7 14 1 25 -2 25 -7 0 -4
7 -5 17 -2 12 5 14 3 8 -8 -7 -11 -5 -11 10 1 10 8 16 10 12 4 -8 -14 20 -28
47 -25 12 2 16 -2 11 -11 -3 -7 1 -4 9 6 15 19 16 19 16 2 0 -15 3 -16 15 -6
13 11 14 10 9 -5 -5 -13 -4 -16 5 -11 7 5 18 0 27 -10 9 -11 12 -13 8 -5 -6
11 -2 13 17 7 13 -4 36 -10 52 -13 15 -3 27 -10 27 -17 0 -6 5 -4 10 4 7 10
12 12 18 4 4 -6 18 -15 31 -19 18 -5 22 -4 17 6 -4 8 -1 6 7 -3 10 -13 16 -15
25 -6 9 9 12 9 12 0 0 -7 12 -12 26 -12 17 0 23 -4 18 -12 -5 -9 -2 -9 9 1 14
11 17 11 17 0 0 -11 2 -11 10 1 5 8 10 10 10 4 0 -11 15 -14 58 -14 12 0 22
-5 22 -11 0 -6 9 -8 20 -4 13 4 20 2 20 -7 0 -8 3 -9 8 -3 10 14 44 12 60 -2
17 -17 35 -17 26 -1 -6 10 -5 10 8 1 8 -7 17 -10 21 -7 3 3 14 1 25 -5 13 -7
23 -7 32 2 10 9 11 9 6 0 -9 -16 20 -17 30 -1 5 7 11 5 21 -7 7 -11 13 -14 13
-9 0 6 7 11 15 11 11 0 12 -4 4 -13 -9 -10 -5 -11 19 -5 20 6 34 5 41 -2 7 -7
11 -7 11 -1 0 12 36 12 47 -1 5 -4 2 -5 -6 0 -10 6 -12 4 -7 -4 6 -9 11 -9 23
0 12 10 16 10 24 -2 7 -12 9 -12 9 1 0 13 1 13 10 0 8 -12 10 -12 10 -1 0 11
3 11 17 0 15 -12 16 -12 8 1 -8 13 -7 13 8 1 14 -11 17 -11 17 0 0 10 2 11 8
2 5 -8 13 -9 22 -3 9 5 19 5 27 -2 8 -6 16 -8 20 -5 3 4 13 1 21 -6 13 -9 14
-9 8 0 -5 10 1 11 23 7 18 -4 37 -2 45 5 10 8 16 9 21 1 3 -6 26 -8 51 -6 24
2 42 1 40 -3 -3 -4 10 -6 27 -4 18 2 38 4 45 3 63 -2 102 4 102 14 0 6 4 5 9
-3 6 -9 10 -10 16 -2 5 9 10 9 21 0 11 -9 14 -9 14 1 0 10 3 10 14 1 10 -8 16
-9 21 -1 3 5 11 10 16 10 6 0 7 -6 3 -12 -6 -10 -5 -10 7 -1 12 9 18 10 27 1
8 -8 13 -7 18 6 5 14 9 15 15 4 5 -7 9 -8 9 -3 0 6 19 10 43 10 23 0 48 3 55
8 8 6 12 5 12 -4 1 -10 5 -9 14 4 9 12 16 14 21 8 4 -7 13 -8 23 -2 9 4 23 6
30 4 7 -3 20 1 29 9 14 11 16 11 8 -2 -8 -13 -7 -13 8 -1 14 11 20 11 34 0 11
-10 14 -10 9 -1 -5 8 0 12 13 12 12 0 22 -1 24 -2 1 -1 13 4 26 11 19 11 22
11 15 -1 -6 -11 -5 -11 9 1 9 7 17 10 17 7 0 -4 10 -1 22 5 29 15 61 17 70 4
5 -6 8 -5 8 3 0 7 5 10 10 7 6 -3 10 -2 10 2 0 5 12 9 28 10 49 1 53 3 46 16
-5 8 -2 8 9 -2 10 -8 17 -9 17 -3 0 6 13 9 31 7 20 -2 32 1 36 11 3 8 9 14 15
14 5 0 6 -6 2 -12 -4 -7 2 -5 14 6 12 10 28 16 37 13 8 -4 15 -2 15 4 0 6 5 7
10 4 6 -3 10 0 10 7 0 10 3 9 10 -2 8 -12 10 -12 16 4 5 14 9 15 15 4 7 -11 9
-11 9 1 0 7 6 11 15 8 8 -4 17 -2 21 4 3 6 12 8 20 5 8 -3 14 -1 14 5 0 6 4 7
10 4 6 -3 10 -1 10 5 0 6 4 8 10 5 6 -3 10 -1 10 6 0 10 3 10 12 1 9 -9 16 -8
30 5 14 12 21 13 32 4 12 -10 14 -8 9 11 -3 17 -2 19 5 9 7 -10 11 -10 17 -1
4 6 14 9 22 6 8 -3 12 -2 9 3 -8 12 18 21 45 16 12 -2 19 -2 16 2 -13 12 27
31 46 22 12 -7 17 -6 15 2 -2 7 6 15 17 17 11 2 23 9 27 16 5 8 8 7 8 -2 0
-10 4 -9 16 2 8 9 20 14 25 11 5 -4 9 -1 9 4 0 6 7 11 15 11 8 0 15 6 15 13 0
8 4 7 10 -3 5 -8 10 -10 10 -4 0 11 29 25 55 28 14 1 34 20 29 28 -2 3 6 4 18
0 14 -3 19 -1 14 6 -5 8 -2 10 8 6 9 -3 16 -1 16 6 0 6 5 8 10 5 6 -3 10 -1
10 5 0 7 7 10 15 6 10 -3 15 1 16 12 0 10 3 12 6 5 2 -7 10 -13 16 -13 5 0 7
3 4 7 -9 8 24 32 45 33 9 0 20 5 24 12 5 7 3 8 -6 3 -9 -6 -11 -4 -5 4 5 9 10
10 18 2 7 -7 24 0 56 26 25 21 39 29 31 18 -15 -19 -14 -19 11 0 15 11 24 25
21 30 -3 6 3 3 13 -5 10 -8 16 -10 12 -3 -4 7 1 14 13 18 11 4 18 11 14 16 -3
5 -2 9 3 8 12 -4 63 23 63 33 0 4 3 7 8 7 20 -3 33 2 27 11 -4 6 -3 9 2 8 14
-4 73 32 73 45 0 8 4 7 10 -3 8 -13 10 -12 10 3 0 9 7 17 15 17 8 0 15 8 15
18 0 13 2 14 9 3 7 -10 12 -8 25 10 9 13 16 19 16 14 0 -6 5 -2 11 8 5 9 17
17 24 17 8 0 15 5 15 11 0 5 5 7 10 4 9 -6 14 8 11 27 0 5 2 7 7 6 4 -1 20 2
35 7 21 6 25 10 15 16 -10 7 -8 9 7 10 11 1 23 1 27 0 5 0 7 2 7 7 -1 4 -1 14
0 22 1 13 2 13 11 0 8 -13 10 -13 10 2 0 12 5 15 18 11 15 -6 15 -5 3 10 -12
15 -12 17 3 11 10 -4 18 0 22 10 3 9 13 16 21 16 8 0 11 5 7 12 -5 8 -2 9 10
5 9 -4 15 -3 12 2 -3 5 2 15 11 22 14 12 16 12 9 -1 -4 -8 0 -6 8 4 9 11 16
24 16 29 0 4 5 5 10 2 6 -3 10 -1 10 5 0 6 5 8 12 4 8 -5 9 -2 5 9 -3 9 -3 16
1 16 22 -4 33 3 28 16 -3 8 -2 14 2 13 16 -3 41 15 35 25 -4 6 1 8 14 5 15 -4
20 -1 19 11 0 9 5 15 11 14 7 -2 12 3 10 10 -1 6 4 11 10 10 7 -2 12 3 10 10
-1 6 4 11 10 10 7 -2 12 3 10 10 -1 6 4 11 11 10 6 -2 12 6 12 17 0 18 10 25
32 21 5 0 7 4 5 11 -1 7 5 12 13 13 8 0 15 7 15 15 0 8 5 15 12 15 6 0 15 4
20 9 5 5 3 6 -4 2 -7 -4 -13 -2 -13 3 0 6 7 11 15 11 8 0 15 5 15 11 0 6 7 9
15 5 13 -4 13 -2 5 14 -8 16 -7 18 9 15 15 -3 19 1 16 16 -2 10 1 22 7 25 7 4
8 2 4 -4 -10 -16 2 -15 19 2 8 7 11 16 8 20 -4 3 -1 6 6 6 7 0 9 5 6 10 -3 6
2 10 12 10 15 0 16 2 3 11 -12 9 -11 10 8 6 12 -3 20 -2 18 2 -2 3 2 17 10 31
7 14 13 19 14 13 0 -7 4 -13 9 -13 4 0 7 11 6 25 -2 17 3 26 16 30 10 4 19 10
19 15 0 5 11 21 26 35 14 14 22 30 18 37 -4 6 -3 8 3 5 5 -4 16 5 23 18 7 13
18 22 23 18 6 -3 7 -1 3 5 -3 6 -2 13 4 17 6 4 8 11 5 16 -6 8 9 13 29 10 5
-1 3 5 -4 14 -11 14 -11 16 1 13 8 -2 13 3 11 11 -2 8 3 11 11 8 10 -4 13 0
10 13 -5 20 28 45 43 32 5 -4 2 2 -6 12 -14 18 -13 19 3 13 15 -6 16 -4 7 13
-9 16 -8 18 5 14 11 -5 14 -2 8 12 -4 11 -3 15 5 10 7 -4 14 3 18 18 3 13 12
27 21 30 8 3 12 10 9 15 -8 12 23 43 34 36 4 -3 6 4 3 15 -3 12 1 22 11 26 9
3 13 10 10 15 -3 5 0 9 6 9 7 0 10 7 6 15 -3 8 -1 15 5 15 6 0 7 5 3 12 -4 6
-3 8 3 5 6 -4 17 1 24 10 10 12 10 14 2 9 -7 -4 -13 -2 -13 3 0 6 5 11 10 11
6 0 10 7 10 16 0 9 5 12 11 8 8 -5 10 1 7 19 -3 15 -1 24 3 21 10 -6 31 31 22
40 -3 3 2 6 12 6 15 0 16 2 4 17 -12 15 -12 16 3 10 13 -4 15 -2 11 10 -5 12
-3 14 7 8 10 -6 12 -4 7 9 -4 10 -1 19 8 22 7 3 11 12 8 20 -3 8 0 14 7 14 6
0 8 5 5 10 -3 5 -1 10 5 10 6 0 8 5 5 10 -3 6 -1 10 6 10 7 0 9 3 6 7 -4 3 1
15 10 26 13 15 14 19 3 13 -8 -4 -6 0 4 8 11 9 16 16 12 16 -5 0 -3 6 3 13 6
8 8 17 4 20 -3 4 -1 7 6 7 7 0 10 4 6 9 -3 5 -1 12 5 16 5 3 10 15 10 26 0 10
5 19 11 19 5 0 7 5 4 10 -3 6 2 10 12 11 11 0 13 3 5 6 -10 4 -10 8 -1 19 6 8
8 14 3 14 -4 0 1 7 12 15 16 12 17 16 4 24 -12 8 -10 12 10 20 14 5 19 10 11
10 -9 1 -10 5 -4 14 6 6 9 20 8 29 -2 10 2 15 10 12 8 -3 12 4 11 23 0 19 4
27 14 25 11 -3 11 0 0 12 -9 12 -9 16 -1 16 7 0 9 5 6 10 -3 6 -1 10 6 10 8 0
7 5 -2 17 -8 9 -9 14 -3 10 7 -4 17 0 24 8 11 13 10 15 -6 9 -18 -5 -18 -5 0
10 10 8 15 19 11 25 -3 6 0 11 7 11 9 0 9 3 -2 10 -9 6 -10 10 -3 10 6 0 14
14 18 30 4 19 11 28 18 24 8 -5 8 -2 0 7 -18 18 -16 29 5 30 10 0 12 3 4 6 -6
2 -9 10 -5 16 4 7 9 21 10 32 2 11 6 27 10 35 7 16 9 27 16 71 2 14 11 40 20
58 8 17 11 28 5 25 -8 -5 -9 -1 -3 12 4 10 8 27 9 37 0 9 4 17 8 17 4 0 5 7 2
15 -4 9 0 15 7 15 11 0 11 3 -1 10 -12 8 -12 10 -1 10 11 0 11 3 1 16 -11 12
-11 15 0 12 7 -2 15 3 18 11 2 8 0 11 -6 7 -6 -4 -8 2 -5 14 3 11 10 17 17 13
6 -4 5 0 -2 9 -9 11 -9 18 -3 23 6 3 9 16 7 28 -1 12 4 28 13 35 9 8 11 11 5
8 -7 -3 -11 4 -11 19 0 14 3 22 7 20 10 -6 7 15 -4 34 -7 10 -5 13 5 9 9 -4
14 2 14 17 0 13 -3 21 -7 19 -3 -2 -4 5 -1 16 3 11 10 17 17 13 6 -4 5 1 -3
10 -10 13 -11 20 -2 30 8 10 7 17 -2 27 -10 10 -9 12 6 7 13 -5 16 -3 10 6
-13 21 -13 47 0 47 7 0 8 3 2 8 -12 8 -16 42 -5 42 4 0 6 14 4 31 -3 22 0 28
9 23 9 -6 9 -5 0 7 -10 12 -10 18 0 29 10 10 9 11 -3 5 -13 -8 -13 -7 -1 8 9
11 9 17 2 17 -16 0 -9 44 9 52 12 5 12 7 -2 7 -14 1 -16 6 -9 24 4 12 6 28 3
36 -3 8 0 11 7 7 8 -5 8 0 1 19 -12 31 -10 46 10 62 13 12 13 12 0 8 -11 -4
-16 2 -18 20 -1 19 2 24 11 19 9 -6 9 -4 -1 8 -9 12 -10 18 -2 23 8 5 6 13 -5
25 -12 14 -13 20 -4 26 8 5 10 3 4 -6 -6 -9 -4 -11 4 -6 9 6 8 12 -4 26 -11
12 -13 20 -6 25 6 3 11 11 11 16 0 6 -5 7 -11 3 -8 -5 -8 -1 0 14 14 27 14 35
-1 26 -9 -5 -9 -2 1 9 11 14 11 17 0 17 -11 0 -11 2 1 10 12 8 12 10 1 10 -10
0 -11 3 -2 13 8 10 7 17 -2 26 -9 9 -9 14 2 20 10 7 10 10 1 13 -10 3 -10 9 0
28 12 22 11 23 -2 13 -12 -10 -14 -10 -13 5 0 9 5 24 10 31 6 11 4 13 -8 8
-11 -4 -14 -2 -10 8 3 8 10 12 17 8 7 -4 7 -1 -1 9 -7 8 -10 18 -6 21 3 4 1 7
-7 7 -10 0 -10 3 0 15 7 9 8 15 2 15 -12 0 -11 18 2 39 7 10 6 12 -4 6 -10 -6
-12 0 -8 23 2 17 1 29 -4 26 -4 -3 -8 -1 -8 5 0 5 5 13 10 16 8 5 7 12 -1 22
-13 15 -16 29 -20 90 -1 18 -5 30 -9 28 -9 -6 -6 27 5 44 5 10 4 12 -3 7 -8
-5 -12 3 -12 23 0 17 -5 31 -11 31 -5 0 -7 5 -4 11 4 5 8 21 10 35 2 20 0 22
-12 13 -11 -9 -12 -8 -7 5 4 10 1 16 -7 16 -9 0 -10 3 -4 8 13 9 18 32 7 32
-4 0 -9 12 -10 26 -1 15 -7 33 -13 40 -9 11 -8 18 2 31 8 9 9 14 3 10 -16 -10
-25 18 -11 32 9 9 8 11 -4 6 -13 -5 -16 -1 -14 19 2 14 -1 28 -6 32 -5 3 -7
10 -4 15 4 5 0 9 -7 9 -9 0 -9 3 2 10 10 6 11 10 2 10 -6 0 -11 3 -11 8 4 21
-2 32 -13 26 -9 -5 -9 -2 1 9 9 11 10 17 2 17 -6 0 -11 10 -11 23 0 13 -5 28
-12 35 -9 9 -9 12 1 12 9 0 8 5 -3 16 -9 8 -14 19 -11 24 3 4 -2 10 -10 14
-12 4 -13 11 -5 32 9 23 8 25 -3 15 -12 -9 -17 -5 -28 21 -14 36 -16 38 -54
83 -39 47 -88 95 -96 95 -4 0 -14 6 -21 13 -22 20 -110 60 -163 74 -23 6 -185
12 -200 8z"/>
<path d="M1800 4479 c0 -5 5 -7 10 -4 6 3 10 8 10 11 0 2 -4 4 -10 4 -5 0 -10
-5 -10 -11z"/>
</g>
</svg>
